<?xml version="1.0" encoding="UTF-8" standalone="no"?>
<!-- Created with Inkscape (http://www.inkscape.org/) -->

<svg
   width="188.36533mm"
   height="91.267929mm"
   viewBox="0 0 188.36533 91.267929"
   version="1.1"
   id="svg1"
   xmlns="http://www.w3.org/2000/svg"
   xmlns:svg="http://www.w3.org/2000/svg">
  <defs
     id="defs1" />
  <g
     id="layer1"
     transform="translate(-10.823868,-102.77862)">
    <g
       id="text2-1-0-9-8-5"
       style="font-size:133.628px;font-family:Z003;-inkscape-font-specification:Z003;letter-spacing:8.19309px;fill:#ffffff;stroke-width:4.75376"
       aria-label="rM.">
      <path
         d="m 12.026521,193.64567 10.289356,-3.87521 10.0221,-38.08399 c 4.543353,-3.47432 7.616797,-4.67698 11.224753,-4.67698 2.939816,0 4.67698,1.06903 7.082284,4.14247 l 4.00884,-12.69466 c -2.405304,-0.80177 -3.607956,-1.06902 -4.944236,-1.06902 -2.538932,0 -5.211492,1.20265 -8.819448,3.74158 -1.737164,1.33628 -3.474328,2.67256 -5.34512,3.87521 -0.801768,0.66814 -1.737164,1.33628 -2.538933,1.8708 l 1.603537,-8.01769 c 0,-0.80176 -0.801768,-1.4699 -1.737165,-1.4699 -1.737164,0 -13.496428,5.746 -21.647736,10.55661 l -0.400885,3.60796 c 7.750425,-3.74159 7.884053,-3.87522 9.621217,-3.87522 1.737164,0 2.538932,0.9354 2.538932,2.80619 0,1.87079 -1.33628,8.01768 -2.939816,13.89731 z m 44.005291,-1.33628 c 2.405304,0.13363 4.409724,0.13363 5.746004,0.13363 10.422984,0 17.238013,-3.07345 23.117645,-10.15573 4.276096,-5.47875 5.879632,-8.81945 9.086704,-19.77695 1.469908,-5.34512 6.414145,-23.3849 8.685825,-32.73886 4.67698,48.10608 4.8106,49.30873 5.07786,59.99898 l 6.54777,-5.07787 c 4.40973,-9.75484 13.63006,-24.05304 35.67868,-55.32199 -0.40088,2.00442 -0.80177,3.87521 -1.33628,5.87963 -0.40088,2.00442 -1.46991,6.01326 -3.07344,11.89289 -7.75043,28.86365 -9.35396,35.01054 -9.62122,35.67868 -1.06902,3.07344 -1.73716,5.87963 -1.73716,7.75042 0,2.00442 1.4699,3.47433 3.20707,3.47433 0.66814,0 1.60353,-0.13363 2.53893,-0.26725 2.67256,-0.53452 10.55661,-1.8708 12.56103,-2.13805 l 6.28052,-0.80177 c 0.40088,-0.13363 1.46991,-0.26726 3.20707,-0.53451 l 2.80619,-3.3407 c -2.27168,0.13362 -4.00884,0.26725 -5.07787,0.40088 -2.27167,0.13363 -4.40972,0.26726 -5.47874,0.26726 -4.2761,0 -6.6814,-2.00442 -6.6814,-5.34512 0,-3.74159 0,-3.74159 6.94865,-31.9371 3.47433,-14.43182 6.81503,-26.05746 10.28936,-36.34681 1.06902,-3.20708 2.13805,-4.14247 4.54335,-4.14247 1.20265,0 2.93982,0.13363 4.67698,0.53451 0.53451,0.13363 2.00442,0.40088 3.60796,0.66814 l 5.47875,-7.48317 c -2.40531,-0.66814 -3.60796,-0.80177 -5.34512,-0.80177 -2.93982,0 -5.07787,0.53452 -8.68583,2.40531 -5.87963,2.93981 -10.28935,6.14689 -12.82828,9.22033 -1.60354,2.13805 -1.60354,2.13805 -21.38048,29.66542 -5.07787,7.21591 -10.02211,14.56545 -15.09997,21.91499 l -3.3407,4.81061 c -1.73716,-20.31146 -5.21149,-49.84325 -6.94866,-59.19721 l -4.14246,3.3407 c -5.07787,-0.66814 -7.6168,-0.80177 -10.823873,-0.80177 -8.953076,0 -14.298196,2.27168 -20.578713,8.81945 -7.215912,7.34954 -11.492008,15.76811 -11.492008,22.58314 0,3.87521 0.801768,7.21591 3.073444,12.29377 l 10.155729,-7.08228 c -3.207073,-6.81503 -4.276097,-10.15573 -4.276097,-14.16457 0,-8.68582 6.547773,-13.49643 18.173409,-13.49643 3.207072,0 5.211492,0.13363 9.621217,0.80177 -5.879633,23.91941 -13.095545,48.90785 -15.367221,53.18394 -2.67256,4.67698 -6.01326,6.6814 -11.759265,6.6814 -2.271676,0 -3.073444,0 -9.888472,-0.66814 z"
         id="path1" />
      <path
         d="m 183.02021,183.22268 c 1.06903,2.93982 3.74159,7.21592 6.28052,10.28936 5.07786,-3.74158 6.28051,-4.67698 9.88847,-8.41857 -1.60354,-2.27167 -2.93982,-4.40972 -3.07344,-4.54335 -0.9354,-1.46991 -1.60354,-2.53893 -3.20708,-5.34512 -0.40088,0.40089 -1.06902,0.9354 -1.87079,1.60354 -1.06902,0.80177 -2.13805,1.73716 -3.20707,2.67256 -0.9354,0.66814 -1.73716,1.33628 -4.81061,3.74158 z"
         id="path2" />
    </g>
  </g>
</svg>
